# Blender v2.93.14 OBJ File: ''
# www.blender.org
mtllib bush-like.mtl
o Cube_Cube.002
v -1.428401 -1.483079 1.544059
v -1.050783 1.084109 1.731152
v -1.326210 -1.760756 -1.061398
v -1.150352 1.283391 -0.661041
v 1.398684 -1.228454 1.131313
v 1.148164 1.412977 1.537430
v 1.210179 -1.439126 -1.290287
v 1.077014 1.476853 -1.150156
v -1.494185 -1.792877 0.269556
v -1.764758 -0.894221 1.711635
v -1.204847 1.717010 0.817753
v -1.511736 -1.140141 -1.204321
v -0.260406 -1.609588 -1.261919
v -0.222064 1.919276 -0.967890
v 1.239891 -0.487017 -1.714170
v 1.368114 -1.445539 -0.334941
v 1.258543 1.900520 0.044342
v 1.687000 -0.554018 1.343761
v 0.006754 -1.376104 1.550407
v -0.123282 1.482690 1.976016
v -0.297836 2.539910 0.641684
v 0.059445 -1.488474 0.075721
v 0.291678 -0.723051 1.888293
v 1.845125 -0.880726 -0.512330
v -0.516872 -0.843179 -1.670951
v -1.865355 -1.387401 0.871749
v -1.515853 -1.664382 0.976658
v -1.614871 -0.174851 1.851814
v -1.223888 1.692882 0.111866
v -1.402412 -1.430862 -1.142465
v -0.808261 -1.711133 -1.186245
v 0.358817 1.751169 -1.230243
v 1.265000 -0.974930 -1.533240
v 1.304233 -1.463644 -0.850703
v 1.439910 1.669048 0.807685
v 1.586860 -0.941554 1.253091
v 0.661325 -1.283666 1.373659
v -0.607696 1.342293 1.966318
v -1.403421 -1.836953 -0.420680
v -1.565095 -1.182949 1.669436
v -1.188906 1.383301 1.427032
v -1.606425 -0.427926 -1.188125
v 0.467603 -1.538670 -1.325771
v -0.686295 1.838103 -0.793921
v 1.264870 0.290229 -1.729159
v 1.426223 -1.340862 0.386382
v 1.237896 1.765206 -0.648429
v 1.664200 0.153114 1.410671
v -0.672767 -1.433924 1.613234
v 0.483202 1.479725 1.891110
v -0.253996 2.038512 1.384372
v -0.257498 2.505209 -0.086665
v 0.202171 2.495979 0.481864
v -0.689151 2.305426 0.752004
v 0.039783 -1.369255 0.927457
v -0.080126 -1.604588 -0.656490
v -0.772761 -1.648743 0.266075
v 0.761829 -1.485416 -0.195243
v -0.698859 -0.800871 1.964040
v 0.971137 -0.671097 1.650997
v 0.284721 -1.108388 1.735113
v 0.011734 0.104349 2.013631
v 1.880818 -0.840738 0.266973
v 1.622894 -0.742568 -1.147876
v 1.609858 -1.188999 -0.491688
v 1.884598 -0.195868 -0.721689
v 0.055246 -0.620352 -1.772252
v -0.872427 -0.926503 -1.508778
v -0.434244 -1.241549 -1.439455
v -0.495460 0.114047 -1.659709
v -1.770331 -1.371029 -0.041980
v -1.835773 -1.190963 1.282120
v -1.688134 -1.561128 0.516114
v -1.803333 -0.691436 1.004977
v -1.726509 -0.422158 1.440954
v -1.660107 -1.413328 1.146586
v -1.588215 -1.585630 -0.303783
v -0.978705 -0.040971 -1.418437
v -0.830349 -1.367590 -1.337257
v 0.283265 -1.122379 -1.571334
v 1.671867 0.009782 -1.253886
v 1.490528 -1.096453 -1.047759
v 1.690109 -1.126378 0.329882
v 0.809325 0.066272 1.778392
v 0.900140 -1.025492 1.520758
v -0.564719 -1.169792 1.824062
v 0.645607 -1.553300 -0.817341
v -0.795636 -1.722347 -0.536350
v -0.727270 -1.516400 1.075188
v -0.651096 2.352002 0.049202
v 0.259269 2.367064 -0.299315
v 0.295301 2.060113 1.258348
v -0.660759 1.848809 1.446530
v 0.755958 -1.320043 0.645018
v -0.791766 0.084593 2.038735
v 1.931899 -0.155496 0.088523
v 0.147299 0.341990 -1.796670
v -1.780911 -0.608448 0.008918
vt 0.000000 0.000000
vt 1.000000 0.000000
vt 1.000000 1.000000
vt 0.000000 1.000000
vt 0.000000 0.000000
vt 1.000000 0.000000
vt 1.000000 1.000000
vt 0.000000 1.000000
vt 0.000000 0.000000
vt 1.000000 0.000000
vt 1.000000 1.000000
vt 0.000000 1.000000
vt 0.000000 0.000000
vt 1.000000 0.000000
vt 1.000000 1.000000
vt 0.000000 1.000000
vt 0.000000 0.000000
vt 1.000000 0.000000
vt 1.000000 1.000000
vt 0.000000 1.000000
vt 0.000000 0.000000
vt 1.000000 0.000000
vt 0.000000 1.000000
vt 0.000000 0.000000
vt 1.000000 0.000000
vt 1.000000 1.000000
vt 0.000000 1.000000
vt 0.000000 0.000000
vt 1.000000 0.000000
vt 1.000000 1.000000
vt 0.000000 1.000000
vt 0.000000 0.000000
vt 1.000000 1.000000
vt 0.000000 1.000000
vt 0.000000 0.000000
vt 1.000000 0.000000
vt 1.000000 1.000000
vt 0.000000 1.000000
vt 0.000000 0.000000
vt 1.000000 0.000000
vt 1.000000 1.000000
vt 0.000000 1.000000
vt 0.000000 0.000000
vt 1.000000 0.000000
vt 1.000000 1.000000
vt 0.000000 1.000000
vt 0.000000 0.000000
vt 1.000000 0.000000
vt 1.000000 1.000000
vt 0.000000 1.000000
vt 0.000000 0.000000
vt 1.000000 0.000000
vt 1.000000 1.000000
vt 0.000000 1.000000
vt 0.000000 0.000000
vt 1.000000 0.000000
vt 0.000000 1.000000
vt 0.000000 0.000000
vt 1.000000 0.000000
vt 1.000000 1.000000
vt 0.000000 1.000000
vt 0.000000 0.000000
vt 1.000000 0.000000
vt 1.000000 1.000000
vt 0.000000 1.000000
vt 0.000000 0.000000
vt 1.000000 0.000000
vt 1.000000 1.000000
vt 0.000000 1.000000
vt 0.000000 0.000000
vt 1.000000 0.000000
vt 1.000000 1.000000
vt 0.000000 1.000000
vt 0.000000 0.000000
vt 1.000000 0.000000
vt 1.000000 1.000000
vt 0.000000 1.000000
vt 0.000000 0.000000
vt 1.000000 0.000000
vt 1.000000 1.000000
vt 0.000000 1.000000
vt 0.000000 0.000000
vt 1.000000 0.000000
vt 1.000000 1.000000
vt 0.000000 1.000000
vt 0.000000 0.000000
vt 1.000000 0.000000
vt 1.000000 1.000000
vt 0.000000 1.000000
vt 0.000000 0.000000
vt 0.000000 1.000000
vt 0.000000 0.000000
vt 1.000000 0.000000
vt 1.000000 1.000000
vt 0.000000 1.000000
vt 0.000000 0.000000
vt 1.000000 0.000000
vt 1.000000 1.000000
vt 0.000000 1.000000
vt 0.000000 0.000000
vt 1.000000 0.000000
vt 1.000000 1.000000
vt 0.000000 1.000000
vt 0.000000 0.000000
vt 1.000000 0.000000
vt 1.000000 1.000000
vt 0.000000 1.000000
vt 0.000000 0.000000
vt 1.000000 0.000000
vt 1.000000 1.000000
vt 0.000000 1.000000
vt 0.000000 0.000000
vt 1.000000 0.000000
vt 1.000000 1.000000
vt 0.000000 1.000000
vt 0.000000 0.000000
vt 1.000000 0.000000
vt 1.000000 1.000000
vt 0.000000 1.000000
vt 0.000000 0.000000
vt 1.000000 0.000000
vt 1.000000 1.000000
vt 0.000000 1.000000
vt 0.000000 0.000000
vt 1.000000 0.000000
vt 1.000000 1.000000
vt 0.000000 1.000000
vt 0.000000 0.000000
vt 1.000000 0.000000
vt 1.000000 1.000000
vt 0.000000 1.000000
vt 0.000000 0.000000
vt 1.000000 0.000000
vt 1.000000 1.000000
vt 0.000000 1.000000
vt 0.000000 0.000000
vt 1.000000 0.000000
vt 1.000000 1.000000
vt 0.000000 1.000000
vt 0.000000 0.000000
vt 1.000000 0.000000
vt 1.000000 1.000000
vt 0.000000 1.000000
vt 0.000000 0.000000
vt 1.000000 0.000000
vt 1.000000 1.000000
vt 0.000000 1.000000
vt 0.000000 0.000000
vt 1.000000 0.000000
vt 1.000000 1.000000
vt 0.000000 1.000000
vt 0.000000 0.000000
vt 1.000000 0.000000
vt 1.000000 1.000000
vt 0.000000 1.000000
vt 0.000000 0.000000
vt 1.000000 0.000000
vt 1.000000 1.000000
vt 0.000000 1.000000
vt 0.000000 0.000000
vt 1.000000 0.000000
vt 1.000000 1.000000
vt 0.000000 1.000000
vt 0.000000 0.000000
vt 1.000000 0.000000
vt 1.000000 1.000000
vt 0.000000 1.000000
vt 0.000000 0.000000
vt 1.000000 0.000000
vt 1.000000 1.000000
vt 0.000000 1.000000
vt 0.000000 0.000000
vt 1.000000 0.000000
vt 1.000000 1.000000
vt 0.000000 1.000000
vt 0.000000 0.000000
vt 1.000000 0.000000
vt 1.000000 1.000000
vt 0.000000 1.000000
vt 0.000000 0.000000
vt 1.000000 0.000000
vt 1.000000 1.000000
vt 0.000000 1.000000
vt 0.000000 0.000000
vt 1.000000 0.000000
vt 1.000000 1.000000
vt 0.000000 1.000000
vt 0.000000 0.000000
vt 1.000000 0.000000
vt 1.000000 1.000000
vt 0.000000 1.000000
vt 0.000000 0.000000
vt 1.000000 0.000000
vt 1.000000 1.000000
vt 0.000000 1.000000
vt 0.000000 0.000000
vt 1.000000 0.000000
vt 1.000000 1.000000
vt 0.000000 1.000000
vt 0.000000 0.000000
vt 1.000000 0.000000
vt 1.000000 1.000000
vt 0.000000 1.000000
vt 0.000000 0.000000
vt 1.000000 0.000000
vt 1.000000 1.000000
vt 0.000000 1.000000
vt 0.000000 0.000000
vt 1.000000 0.000000
vt 1.000000 1.000000
vt 0.000000 1.000000
vt 0.000000 0.000000
vt 1.000000 0.000000
vt 1.000000 1.000000
vt 0.000000 1.000000
vt 0.000000 0.000000
vt 1.000000 0.000000
vt 1.000000 1.000000
vt 0.000000 0.000000
vt 1.000000 0.000000
vt 1.000000 1.000000
vt 0.000000 1.000000
vt 0.000000 0.000000
vt 1.000000 0.000000
vt 1.000000 1.000000
vt 0.000000 1.000000
vt 0.000000 0.000000
vt 1.000000 0.000000
vt 1.000000 1.000000
vt 0.000000 0.000000
vt 1.000000 0.000000
vt 1.000000 1.000000
vt 0.000000 1.000000
vt 0.000000 0.000000
vt 1.000000 0.000000
vt 1.000000 1.000000
vt 0.000000 1.000000
vt 1.000000 0.000000
vt 1.000000 1.000000
vt 0.000000 1.000000
vt 1.000000 0.000000
vt 1.000000 1.000000
vt 0.000000 1.000000
vt 1.000000 0.000000
vt 1.000000 1.000000
vt 1.000000 0.000000
vt 1.000000 1.000000
vt 1.000000 0.000000
vt 1.000000 1.000000
vt 0.000000 1.000000
vt 1.000000 0.000000
vt 1.000000 1.000000
vt 1.000000 0.000000
vt 1.000000 1.000000
vt 0.000000 0.000000
vt 1.000000 0.000000
vt 1.000000 1.000000
vt 0.000000 1.000000
vt 0.000000 0.000000
vt 1.000000 0.000000
vt 1.000000 1.000000
vt 0.000000 1.000000
vt 0.000000 0.000000
vt 1.000000 1.000000
vt 0.000000 1.000000
vt 0.000000 0.000000
vt 1.000000 1.000000
vt 0.000000 1.000000
vt 0.000000 0.000000
vt 1.000000 0.000000
vt 1.000000 1.000000
vt 0.000000 1.000000
vt 0.000000 0.000000
vt 1.000000 1.000000
vt 0.000000 1.000000
vt 0.000000 0.000000
vt 1.000000 0.000000
vt 1.000000 1.000000
vt 0.000000 1.000000
vt 0.000000 0.000000
vt 1.000000 0.000000
vt 0.000000 1.000000
vt 0.000000 0.000000
vt 1.000000 0.000000
vt 1.000000 1.000000
vt 0.000000 1.000000
vt 0.000000 0.000000
vt 1.000000 0.000000
vt 1.000000 1.000000
vt 0.000000 1.000000
vt 0.000000 0.000000
vt 1.000000 0.000000
vt 1.000000 1.000000
vt 0.000000 1.000000
vt 0.000000 0.000000
vt 1.000000 0.000000
vt 1.000000 1.000000
vt 0.000000 1.000000
vt 0.000000 0.000000
vt 1.000000 0.000000
vt 0.000000 1.000000
vt 0.000000 0.000000
vt 1.000000 0.000000
vt 1.000000 1.000000
vt 0.000000 0.000000
vt 1.000000 0.000000
vt 1.000000 1.000000
vt 0.000000 1.000000
vt 0.000000 0.000000
vt 1.000000 0.000000
vt 1.000000 1.000000
vt 0.000000 1.000000
vt 0.000000 0.000000
vt 1.000000 0.000000
vt 1.000000 1.000000
vt 0.000000 1.000000
vt 0.000000 0.000000
vt 1.000000 0.000000
vt 1.000000 1.000000
vt 0.000000 1.000000
vt 0.000000 0.000000
vt 1.000000 0.000000
vt 0.000000 1.000000
vt 0.000000 0.000000
vt 1.000000 0.000000
vt 1.000000 1.000000
vt 0.000000 1.000000
vt 0.000000 0.000000
vt 1.000000 0.000000
vt 1.000000 1.000000
vt 0.000000 1.000000
vt 0.000000 0.000000
vt 1.000000 0.000000
vt 1.000000 1.000000
vt 0.000000 1.000000
vt 0.000000 0.000000
vt 1.000000 0.000000
vt 1.000000 1.000000
vt 0.000000 1.000000
vt 0.000000 0.000000
vt 1.000000 0.000000
vt 1.000000 1.000000
vt 0.000000 1.000000
vt 0.000000 0.000000
vt 1.000000 1.000000
vt 0.000000 1.000000
vt 0.000000 0.000000
vt 1.000000 0.000000
vt 1.000000 1.000000
vt 0.000000 1.000000
vt 0.000000 0.000000
vt 1.000000 0.000000
vt 1.000000 1.000000
vt 0.000000 1.000000
vt 0.000000 0.000000
vt 0.000000 1.000000
vn -0.9526 0.2642 -0.1506
vn 0.1436 0.3984 -0.9059
vn 0.9385 0.2382 0.2498
vn -0.3771 0.1818 0.9082
vn 0.0617 -0.9925 0.1053
vn -0.5591 0.5242 0.6424
vn 0.1086 0.7426 0.6609
vn 0.1406 0.9852 -0.0977
vn -0.7535 0.6575 0.0003
vn 0.1488 -0.9870 0.0615
vn 0.1953 -0.9756 0.0999
vn 0.1095 -0.9923 0.0577
vn -0.1648 -0.3401 0.9258
vn 0.3402 -0.3675 0.8656
vn 0.2226 0.0105 0.9749
vn 0.8910 -0.3942 0.2253
vn 0.7998 -0.5036 -0.3267
vn 0.9356 0.3145 -0.1602
vn 0.0856 -0.3394 -0.9367
vn -0.1832 -0.4475 -0.8753
vn -0.4484 0.3610 -0.8177
vn -0.8763 -0.3980 -0.2713
vn -0.5001 -0.8135 0.2967
vn -0.9593 0.2635 0.1014
vn -0.9924 0.1024 0.0684
vn -0.9820 0.1473 0.1181
vn -0.8828 0.3320 0.3325
vn -0.7520 -0.6448 0.1368
vn -0.7521 -0.5651 0.3392
vn -0.6342 -0.6243 0.4561
vn -0.8949 -0.3883 -0.2197
vn -0.8117 -0.5791 -0.0762
vn -0.7962 -0.5988 -0.0867
vn -0.4400 0.0292 -0.8975
vn -0.3936 0.0118 -0.9192
vn -0.5571 0.3567 -0.7499
vn -0.0650 -0.4330 -0.8990
vn -0.2306 -0.3470 -0.9091
vn -0.2893 -0.3446 -0.8931
vn 0.1048 -0.4707 -0.8761
vn -0.0528 -0.4927 -0.8686
vn -0.0438 -0.4447 -0.8946
vn 0.9137 -0.1400 -0.3815
vn 0.7716 -0.0871 -0.6301
vn 0.8054 0.3599 -0.4710
vn 0.7633 -0.6223 -0.1737
vn 0.8309 -0.4287 -0.3547
vn 0.7819 -0.2848 -0.5545
vn 0.7196 -0.6717 0.1761
vn 0.6855 -0.7279 0.0175
vn 0.8110 -0.5847 -0.0213
vn 0.3046 -0.0675 0.9501
vn 0.4016 -0.0715 0.9130
vn 0.4276 0.0539 0.9024
vn 0.2966 -0.7008 0.6488
vn 0.3196 -0.6086 0.7263
vn 0.3979 -0.3449 0.8501
vn -0.0906 -0.5131 0.8535
vn 0.1251 -0.6489 0.7505
vn 0.1095 -0.3440 0.9326
vn 0.0741 -0.9899 0.1205
vn 0.0785 -0.9963 -0.0339
vn 0.1335 -0.9879 -0.0791
vn 0.1978 -0.9765 0.0860
vn 0.1314 -0.9895 -0.0604
vn 0.1664 -0.9856 -0.0304
vn 0.1002 -0.9706 0.2187
vn 0.1774 -0.9704 0.1641
vn 0.2159 -0.9659 0.1429
vn -0.4471 0.8943 -0.0171
vn -0.3908 0.7760 -0.4950
vn -0.7400 0.5763 -0.3468
vn 0.4592 0.8763 -0.1457
vn 0.3277 0.7926 -0.5143
vn -0.0069 0.8331 -0.5530
vn 0.4143 0.7612 0.4989
vn 0.4833 0.8314 0.2742
vn 0.1565 0.8468 0.5083
vn -0.2141 0.6882 0.6932
vn -0.3014 0.7863 0.5393
vn -0.6372 0.6493 0.4152
vn 0.1135 -0.9930 0.0324
vn 0.1011 -0.9808 0.1665
vn 0.0671 -0.9835 0.1678
vn -0.2030 -0.1229 0.9714
vn 0.0614 -0.1026 0.9928
vn 0.0068 0.0416 0.9991
vn 0.9818 -0.0047 0.1900
vn 0.9957 -0.0794 -0.0480
vn 0.9462 0.3077 -0.1001
vn 0.0554 -0.0263 -0.9981
vn -0.1941 0.0047 -0.9810
vn -0.3031 0.3867 -0.8710
vn -0.9798 -0.0613 -0.1905
vn -0.9973 0.0426 -0.0591
vn -0.9712 0.2384 0.0063
usemtl None
s off
f 98/1/1 29/2/1 4/3/1 42/4/1
f 97/5/2 32/6/2 8/7/2 45/8/2
f 96/9/3 35/10/3 6/11/3 48/12/3
f 95/13/4 38/14/4 2/15/4 28/16/4
f 94/17/5 46/18/5 5/19/5 37/20/5
f 93/21/6 41/22/6 2/15/6 38/23/6
f 92/24/7 51/25/7 20/26/7 50/27/7
f 91/28/8 52/29/8 21/30/8 53/31/8
f 90/32/9 29/2/9 11/33/9 54/34/9
f 89/35/10 55/36/10 19/37/10 49/38/10
f 88/39/11 56/40/11 22/41/11 57/42/11
f 87/43/12 34/44/12 16/45/12 58/46/12
f 86/47/13 59/48/13 10/49/13 40/50/13
f 85/51/14 60/52/14 23/53/14 61/54/14
f 84/55/15 50/56/15 20/26/15 62/57/15
f 83/58/16 63/59/16 18/60/16 36/61/16
f 82/62/17 64/63/17 24/64/17 65/65/17
f 81/66/18 47/67/18 17/68/18 66/69/18
f 80/70/19 67/71/19 15/72/19 33/73/19
f 79/74/20 68/75/20 25/76/20 69/77/20
f 78/78/21 44/79/21 14/80/21 70/81/21
f 77/82/22 71/83/22 12/84/22 30/85/22
f 76/86/23 72/87/23 26/88/23 73/89/23
f 75/90/24 41/22/24 11/33/24 74/91/24
f 72/92/25 75/93/25 74/94/25 26/95/25
f 10/96/26 28/97/26 75/98/26 72/99/26
f 28/100/27 2/101/27 41/102/27 75/103/27
f 27/104/28 76/105/28 73/106/28 9/107/28
f 1/108/29 40/109/29 76/110/29 27/111/29
f 40/112/30 10/113/30 72/114/30 76/115/30
f 39/116/31 77/117/31 30/118/31 3/119/31
f 9/120/32 73/121/32 77/122/32 39/123/32
f 73/124/33 26/125/33 71/126/33 77/127/33
f 68/128/34 78/129/34 70/130/34 25/131/34
f 12/132/35 42/133/35 78/134/35 68/135/35
f 42/136/36 4/137/36 44/138/36 78/139/36
f 31/140/37 79/141/37 69/142/37 13/143/37
f 3/144/38 30/145/38 79/146/38 31/147/38
f 30/148/39 12/149/39 68/150/39 79/151/39
f 43/152/40 80/153/40 33/154/40 7/155/40
f 13/156/41 69/157/41 80/158/41 43/159/41
f 69/160/42 25/161/42 67/162/42 80/163/42
f 64/164/43 81/165/43 66/166/43 24/167/43
f 15/168/44 45/169/44 81/170/44 64/171/44
f 45/172/45 8/173/45 47/174/45 81/175/45
f 34/176/46 82/177/46 65/178/46 16/179/46
f 7/180/47 33/181/47 82/182/47 34/183/47
f 33/184/48 15/185/48 64/186/48 82/187/48
f 46/188/49 83/189/49 36/190/49 5/191/49
f 16/192/50 65/193/50 83/194/50 46/195/50
f 65/196/51 24/197/51 63/198/51 83/199/51
f 60/200/52 84/201/52 62/202/52 23/203/52
f 18/204/53 48/205/53 84/206/53 60/207/53
f 48/208/54 6/209/54 50/210/54 84/211/54
f 37/212/55 85/213/55 61/214/55 19/215/55
f 5/216/56 36/217/56 85/218/56 37/20/56
f 36/219/57 18/220/57 60/221/57 85/222/57
f 49/223/58 86/224/58 40/225/58 1/226/58
f 19/227/59 61/228/59 86/229/59 49/38/59
f 61/230/60 23/231/60 59/232/60 86/233/60
f 56/234/61 87/235/61 58/236/61 22/237/61
f 13/156/62 43/238/62 87/239/62 56/240/62
f 43/152/63 7/241/63 34/242/63 87/243/63
f 39/116/64 88/244/64 57/245/64 9/107/64
f 3/144/65 31/246/65 88/247/65 39/123/65
f 31/140/66 13/248/66 56/249/66 88/250/66
f 27/104/67 89/251/67 49/252/67 1/226/67
f 9/120/68 57/253/68 89/254/68 27/111/68
f 57/255/69 22/256/69 55/257/69 89/258/69
f 52/259/70 90/260/70 54/261/70 21/262/70
f 14/263/71 44/79/71 90/264/71 52/265/71
f 44/266/72 4/137/72 29/267/72 90/268/72
f 47/269/73 91/270/73 53/271/73 17/272/73
f 8/273/74 32/6/74 91/274/74 47/275/74
f 32/276/75 14/277/75 52/278/75 91/279/75
f 35/280/76 92/281/76 50/210/76 6/282/76
f 17/283/77 53/284/77 92/285/77 35/286/77
f 53/287/78 21/288/78 51/289/78 92/290/78
f 51/291/79 93/292/79 38/293/79 20/294/79
f 21/295/80 54/296/80 93/297/80 51/298/80
f 54/299/81 11/300/81 41/102/81 93/301/81
f 55/302/82 94/303/82 37/304/82 19/215/82
f 22/305/83 58/306/83 94/307/83 55/308/83
f 58/309/84 16/310/84 46/311/84 94/312/84
f 59/313/85 95/314/85 28/315/85 10/316/85
f 23/317/86 62/318/86 95/319/86 59/320/86
f 62/321/87 20/322/87 38/293/87 95/323/87
f 63/324/88 96/325/88 48/326/88 18/327/88
f 24/328/89 66/329/89 96/330/89 63/331/89
f 66/332/90 17/333/90 35/334/90 96/335/90
f 67/336/91 97/337/91 45/338/91 15/339/91
f 25/340/92 70/341/92 97/342/92 67/343/92
f 70/344/93 14/277/93 32/345/93 97/346/93
f 71/347/94 98/348/94 42/349/94 12/350/94
f 26/351/95 74/352/95 98/353/95 71/354/95
f 74/355/96 11/300/96 29/267/96 98/356/96
